<svg width="321" height="108" viewBox="0 0 321 108" fill="none" xmlns="http://www.w3.org/2000/svg">
<path d="M318.248 53.8388C318.221 53.4388 318.128 53.0588 317.968 52.6988C317.821 52.3388 317.614 52.0321 317.348 51.7788C317.094 51.5121 316.788 51.3054 316.428 51.1588C316.081 50.9988 315.694 50.9188 315.268 50.9188C314.828 50.9188 314.428 50.9988 314.068 51.1588C313.721 51.3054 313.421 51.5121 313.168 51.7788C312.914 52.0454 312.714 52.3588 312.568 52.7188C312.421 53.0654 312.334 53.4388 312.308 53.8388H318.248ZM319.888 56.7188C319.661 57.8788 319.161 58.7521 318.388 59.3388C317.614 59.9254 316.641 60.2188 315.468 60.2188C314.641 60.2188 313.921 60.0854 313.308 59.8188C312.708 59.5521 312.201 59.1788 311.788 58.6988C311.374 58.2188 311.061 57.6454 310.848 56.9788C310.648 56.3121 310.534 55.5854 310.508 54.7988C310.508 54.0121 310.628 53.2921 310.868 52.6388C311.108 51.9854 311.441 51.4188 311.868 50.9388C312.308 50.4588 312.821 50.0854 313.408 49.8188C314.008 49.5521 314.661 49.4188 315.368 49.4188C316.288 49.4188 317.048 49.6121 317.648 49.9988C318.261 50.3721 318.748 50.8521 319.108 51.4388C319.481 52.0254 319.734 52.6654 319.868 53.3588C320.014 54.0521 320.074 54.7121 320.048 55.3388H312.308C312.294 55.7921 312.348 56.2254 312.468 56.6388C312.588 57.0388 312.781 57.3988 313.048 57.7188C313.314 58.0254 313.654 58.2721 314.068 58.4588C314.481 58.6454 314.968 58.7388 315.528 58.7388C316.248 58.7388 316.834 58.5721 317.288 58.2388C317.754 57.9054 318.061 57.3988 318.208 56.7188H319.888Z" fill="#CA912B"/>
<path d="M301.052 54.9188C301.052 55.3988 301.112 55.8721 301.232 56.3388C301.365 56.7921 301.559 57.1988 301.812 57.5588C302.079 57.9188 302.412 58.2054 302.812 58.4188C303.225 58.6321 303.705 58.7388 304.252 58.7388C304.825 58.7388 305.312 58.6254 305.712 58.3988C306.112 58.1721 306.439 57.8788 306.692 57.5188C306.945 57.1454 307.125 56.7254 307.232 56.2588C307.352 55.7921 307.412 55.3188 307.412 54.8388C307.412 54.3321 307.352 53.8454 307.232 53.3788C307.112 52.8988 306.919 52.4788 306.652 52.1188C306.399 51.7588 306.065 51.4721 305.652 51.2588C305.239 51.0321 304.739 50.9188 304.152 50.9188C303.579 50.9188 303.092 51.0321 302.692 51.2588C302.292 51.4854 301.972 51.7854 301.732 52.1588C301.492 52.5321 301.319 52.9588 301.212 53.4388C301.105 53.9188 301.052 54.4121 301.052 54.9188ZM309.052 59.9988H307.352V58.5988H307.312C307.032 59.1721 306.592 59.5854 305.992 59.8388C305.392 60.0921 304.732 60.2188 304.012 60.2188C303.212 60.2188 302.512 60.0721 301.912 59.7788C301.325 59.4854 300.832 59.0921 300.432 58.5988C300.045 58.1054 299.752 57.5321 299.552 56.8788C299.352 56.2254 299.252 55.5321 299.252 54.7988C299.252 54.0654 299.345 53.3721 299.532 52.7188C299.732 52.0654 300.025 51.4988 300.412 51.0188C300.812 50.5254 301.305 50.1388 301.892 49.8588C302.492 49.5654 303.185 49.4188 303.972 49.4188C304.239 49.4188 304.525 49.4454 304.832 49.4988C305.139 49.5521 305.445 49.6454 305.752 49.7788C306.059 49.8988 306.345 50.0654 306.612 50.2788C306.892 50.4788 307.125 50.7321 307.312 51.0388H307.352V45.7188H309.052V59.9988Z" fill="#CA912B"/>
<path d="M297.778 47.7988H296.078V45.7188H297.778V47.7988ZM296.078 49.6588H297.778V59.9988H296.078V49.6588Z" fill="#CA912B"/>
<path d="M291.243 59.9988H289.263L286.003 47.9988H285.963L282.663 59.9988H280.683L277.023 45.7188H278.963L281.763 57.5988H281.803L285.003 45.7188H287.063L290.223 57.5988H290.263L293.163 45.7188H295.063L291.243 59.9988Z" fill="#CA912B"/>
<path d="M263.081 54.9188C263.081 55.3988 263.141 55.8721 263.261 56.3388C263.394 56.7921 263.588 57.1988 263.841 57.5588C264.108 57.9188 264.441 58.2054 264.841 58.4188C265.254 58.6321 265.734 58.7388 266.281 58.7388C266.854 58.7388 267.341 58.6254 267.741 58.3988C268.141 58.1721 268.468 57.8788 268.721 57.5188C268.974 57.1454 269.154 56.7254 269.261 56.2588C269.381 55.7921 269.441 55.3188 269.441 54.8388C269.441 54.3321 269.381 53.8454 269.261 53.3788C269.141 52.8988 268.948 52.4788 268.681 52.1188C268.428 51.7588 268.094 51.4721 267.681 51.2588C267.268 51.0321 266.768 50.9188 266.181 50.9188C265.608 50.9188 265.121 51.0321 264.721 51.2588C264.321 51.4854 264.001 51.7854 263.761 52.1588C263.521 52.5321 263.348 52.9588 263.241 53.4388C263.134 53.9188 263.081 54.4121 263.081 54.9188ZM271.081 59.9988H269.381V58.5988H269.341C269.061 59.1721 268.621 59.5854 268.021 59.8388C267.421 60.0921 266.761 60.2188 266.041 60.2188C265.241 60.2188 264.541 60.0721 263.941 59.7788C263.354 59.4854 262.861 59.0921 262.461 58.5988C262.074 58.1054 261.781 57.5321 261.581 56.8788C261.381 56.2254 261.281 55.5321 261.281 54.7988C261.281 54.0654 261.374 53.3721 261.561 52.7188C261.761 52.0654 262.054 51.4988 262.441 51.0188C262.841 50.5254 263.334 50.1388 263.921 49.8588C264.521 49.5654 265.214 49.4188 266.001 49.4188C266.268 49.4188 266.554 49.4454 266.861 49.4988C267.168 49.5521 267.474 49.6454 267.781 49.7788C268.088 49.8988 268.374 50.0654 268.641 50.2788C268.921 50.4788 269.154 50.7321 269.341 51.0388H269.381V45.7188H271.081V59.9988Z" fill="#CA912B"/>
<path d="M258.107 45.7188H259.807V59.9988H258.107V45.7188Z" fill="#CA912B"/>
<path d="M251.887 49.6588H253.487V51.8388H253.527C253.941 50.9988 254.447 50.3788 255.047 49.9788C255.647 49.5788 256.407 49.3921 257.327 49.4188V51.2188C256.647 51.2188 256.067 51.3121 255.587 51.4988C255.107 51.6854 254.721 51.9588 254.427 52.3188C254.134 52.6788 253.921 53.1188 253.787 53.6388C253.654 54.1454 253.587 54.7321 253.587 55.3988V59.9988H251.887V49.6588Z" fill="#CA912B"/>
<path d="M242.303 54.8388C242.303 55.4654 242.383 56.0254 242.543 56.5188C242.716 56.9988 242.95 57.4054 243.243 57.7388C243.536 58.0588 243.876 58.3054 244.263 58.4788C244.663 58.6521 245.083 58.7388 245.523 58.7388C245.963 58.7388 246.376 58.6521 246.763 58.4788C247.163 58.3054 247.51 58.0588 247.803 57.7388C248.096 57.4054 248.323 56.9988 248.483 56.5188C248.656 56.0254 248.743 55.4654 248.743 54.8388C248.743 54.2121 248.656 53.6588 248.483 53.1788C248.323 52.6854 248.096 52.2721 247.803 51.9388C247.51 51.6054 247.163 51.3521 246.763 51.1788C246.376 51.0054 245.963 50.9188 245.523 50.9188C245.083 50.9188 244.663 51.0054 244.263 51.1788C243.876 51.3521 243.536 51.6054 243.243 51.9388C242.95 52.2721 242.716 52.6854 242.543 53.1788C242.383 53.6588 242.303 54.2121 242.303 54.8388ZM240.503 54.8388C240.503 54.0788 240.61 53.3721 240.823 52.7188C241.036 52.0521 241.356 51.4788 241.783 50.9988C242.21 50.5054 242.736 50.1188 243.363 49.8388C243.99 49.5588 244.71 49.4188 245.523 49.4188C246.35 49.4188 247.07 49.5588 247.683 49.8388C248.31 50.1188 248.836 50.5054 249.263 50.9988C249.69 51.4788 250.01 52.0521 250.223 52.7188C250.436 53.3721 250.543 54.0788 250.543 54.8388C250.543 55.5988 250.436 56.3054 250.223 56.9588C250.01 57.6121 249.69 58.1854 249.263 58.6788C248.836 59.1588 248.31 59.5388 247.683 59.8188C247.07 60.0854 246.35 60.2188 245.523 60.2188C244.71 60.2188 243.99 60.0854 243.363 59.8188C242.736 59.5388 242.21 59.1588 241.783 58.6788C241.356 58.1854 241.036 57.6121 240.823 56.9588C240.61 56.3054 240.503 55.5988 240.503 54.8388Z" fill="#CA912B"/>
<path d="M237.46 59.9988H235.48L232.22 47.9988H232.18L228.88 59.9988H226.9L223.24 45.7188H225.18L227.98 57.5988H228.02L231.22 45.7188H233.28L236.44 57.5988H236.48L239.38 45.7188H241.28L237.46 59.9988Z" fill="#CA912B"/>
<path d="M67.3055 5.90545C68.8804 5.94506 70.4486 6.00332 71.9949 6.04236C76.9844 6.16795 81.9705 6.44402 86.9437 6.87057C95.6309 7.62354 104.239 9.10233 112.875 10.477C111.833 9.68558 109.984 9.42705 108.69 9.18718C107.201 8.91111 105.696 8.73744 104.209 8.44892C94.4671 6.55886 84.5241 5.81381 74.6299 5.29561C69.6634 5.03538 64.6919 4.87924 59.7193 4.8272C58.8062 4.81758 57.8572 4.77345 56.9508 4.90696C56.0344 5.04217 55.4443 5.61128 54.741 6.19171C53.1207 7.52906 51.6276 9.01973 50.2524 10.6117C47.475 13.8272 45.1816 17.4399 43.1535 21.173C42.2483 22.8396 41.5191 24.4655 40.8652 26.2402C40.8153 26.3759 40.7979 26.527 40.7855 26.673C40.7822 26.7126 40.8422 26.7776 40.8871 26.7963C40.9314 26.8149 41.0088 26.8093 41.0452 26.7804C41.1114 26.7278 41.1753 26.6577 41.2101 26.5813C42.8518 22.9437 45.2164 19.4363 47.5787 16.2338C48.9175 14.4189 50.3489 12.6731 51.8649 11.0065C53.3781 9.34276 54.9104 7.54321 56.8841 6.45194C57.0938 6.33597 57.3058 6.26073 57.5442 6.23018C60.7355 5.81947 64.0351 5.82286 67.305 5.90545H67.3055Z" fill="url(#paint0_linear_894_3419)"/>
<path d="M144.614 8.96315C145.229 9.19566 145.842 9.43213 146.454 9.67313C147.12 9.93506 147.785 10.2496 148.477 10.4363C148.813 10.5517 149.163 10.6015 149.518 10.5743C149.84 10.55 150.17 10.5528 150.481 10.481C151.058 10.348 151.642 10.3107 152.227 10.2598C152.341 10.2496 152.454 10.2207 152.566 10.1936C152.583 10.1891 152.596 10.1466 152.602 10.12C152.608 10.0974 152.606 10.0533 152.598 10.0505C152.488 10.0143 152.378 9.96447 152.266 9.95542C151.444 9.89036 150.63 9.75233 149.839 9.54075C148.707 9.23809 147.585 8.88848 146.487 8.47098C140.452 6.17926 134.226 4.68406 128.08 2.76968C124.19 1.55791 120.076 0.497754 116.02 0.150969C111.703 -0.218445 107.351 0.121551 103.085 0.828699C97.944 1.68124 92.9069 3.06215 87.8675 4.39555C86.181 4.8419 84.4827 5.28429 82.7451 5.42911C84.2365 5.70405 85.7575 5.97956 87.2601 5.7759C88.1076 5.66106 88.9264 5.39574 89.7436 5.14173C98.8627 2.31144 108.862 0.194529 118.417 1.53471C123.193 2.22376 127.854 3.68105 132.493 4.9822C136.588 6.1306 140.633 7.45948 144.614 8.96372V8.96315Z" fill="url(#paint1_linear_894_3419)"/>
<path d="M182.121 26.9049C181.884 26.0637 180.988 25.4408 180.414 24.8429C179.925 24.3326 179.427 23.8297 178.942 23.3148C178.617 22.9715 178.288 22.6383 177.916 22.3452C177.5 22.0177 177.104 21.6641 176.71 21.3088C172.994 17.9518 168.748 15.1255 164.172 13.1133C160.198 11.3652 155.847 10.2032 151.54 10.7016C146.179 11.3211 140.679 14.8534 140.585 20.7357C140.578 21.1498 140.602 21.5657 140.581 21.9786C140.533 22.9126 140.772 23.7968 141.013 24.6816C141.052 24.8236 141.104 24.9639 141.164 25.098C141.2 25.1761 141.264 25.2406 141.315 25.3118C141.357 25.3695 141.503 25.3418 141.53 25.2637C141.557 25.1828 141.596 25.0918 141.583 25.0131C141.504 24.5475 141.412 24.0837 141.324 23.6198C140.56 19.6049 142.729 15.4435 146.233 13.5025C149.163 11.8794 152.679 11.6441 155.994 12.0837C161.045 12.7535 165.818 14.8885 170.122 17.639C174.425 20.3895 178.306 23.7527 182.164 27.1097C182.154 27.0401 182.139 26.9716 182.121 26.9049H182.121Z" fill="url(#paint2_linear_894_3419)"/>
<path d="M50.359 9.43667C50.4717 9.44459 50.6136 9.44798 50.6966 9.38915C51.0314 9.15041 51.3276 8.86586 51.5306 8.49871C51.5631 8.43931 51.5295 8.39518 51.4543 8.37481C48.5603 7.58224 44.918 7.81645 41.9712 8.18813C39.0216 8.56037 36.1068 9.43214 33.5649 10.9873C30.99 12.5628 28.8587 14.798 27.0909 17.2571C25.134 19.9794 23.471 22.9975 22.0728 26.0473C22.0122 26.1791 21.9831 26.3279 21.9561 26.4727C21.9477 26.5179 21.9814 26.5943 22.0201 26.6192C22.0554 26.6424 22.1356 26.6339 22.1732 26.6068C22.2427 26.5564 22.3089 26.4908 22.3538 26.4172C22.7565 25.7644 23.1513 25.107 23.5535 24.4548C24.2809 23.2752 24.9523 22.059 25.8233 20.9745C25.8973 20.8828 25.9753 20.7918 26.0336 20.6905C27.8637 17.527 30.9765 14.7024 34.0619 12.8214C38.1074 10.3548 42.596 9.375 47.2826 9.32069C48.3095 9.30881 49.3342 9.36369 50.3584 9.43723L50.359 9.43667Z" fill="url(#paint3_linear_894_3419)"/>
<path d="M127.65 21.2285C126.721 20.5762 125.899 19.7825 124.832 19.2728C123.585 18.6771 122.358 18.0344 121.109 17.4365C118.335 16.1099 115.494 14.9224 112.592 13.9098C106.834 11.9004 100.837 10.5969 94.7564 10.1591C87.7529 9.65446 79.3573 9.92488 73.162 13.6586C68.6111 16.4012 65.0737 20.7799 62.8286 25.5839C62.6541 25.9567 62.5347 26.3561 62.4062 26.7488C62.3844 26.8149 62.4219 26.9456 62.4752 26.9807C62.5336 27.0192 62.6592 27.0101 62.7231 26.9699C62.8443 26.893 62.9671 26.7957 63.0462 26.6775C65.6441 22.7752 68.4636 18.526 72.5215 15.9418C77.019 13.0782 82.3714 11.9383 87.616 11.5875C101.733 10.6439 115.991 14.4942 128.251 21.6166C128.044 21.4961 127.844 21.3659 127.65 21.229L127.65 21.2285Z" fill="url(#paint4_linear_894_3419)"/>
<path d="M168.836 77.213C168.289 77.213 167.846 76.7672 167.845 76.2162L167.834 72.2166C167.833 71.9513 167.937 71.6967 168.123 71.5083C168.308 71.3205 168.561 71.2147 168.824 71.2141L191.616 71.1819C192.068 71.1802 192.598 71.0704 193.107 70.8736C193.508 70.7186 193.693 70.4431 193.69 70.0069C193.687 69.5656 193.49 69.2669 193.105 69.1193C192.541 68.9032 191.89 68.7821 191.273 68.7787C188.219 68.7601 185.189 68.7578 182.891 68.7578C181.667 68.7578 175.124 68.7606 175.124 68.7606C171.169 68.7601 167.9 65.5349 167.836 61.5721C167.805 59.7205 168.491 57.9752 169.766 56.6582C171.076 55.3039 172.868 54.5498 174.811 54.5345C177.681 54.5119 180.874 54.5017 184.858 54.5017C187.216 54.5017 189.586 54.5051 191.937 54.5085C194.252 54.5119 196.549 54.5153 198.798 54.5153C199.345 54.5153 199.789 54.9628 199.789 55.5149V59.497C199.789 60.0491 199.345 60.4966 198.798 60.4966L175.97 60.5079C175.484 60.5091 174.997 60.5837 174.564 60.724C174.11 60.8706 173.893 61.1483 173.859 61.6241C173.837 61.9268 174.11 62.3663 174.536 62.5134C175 62.6741 175.551 62.7635 176.085 62.7657C177.99 62.7736 179.894 62.7753 181.798 62.7753L186.649 62.7742C188.281 62.7742 190.429 62.7753 192.574 62.7849C195.159 62.7963 197.489 64.1534 198.805 66.4146C200.065 68.5779 200.116 71.1485 198.944 73.2909C197.588 75.7659 195.341 77.1434 192.615 77.1694C192.615 77.1694 168.836 77.213 168.836 77.213Z" fill="#010101"/>
<path d="M162.441 77.213C161.541 77.213 160.926 76.791 160.561 75.922C160.14 74.9162 159.697 73.8962 159.27 72.9096C158.705 71.6084 158.123 70.2632 157.574 68.9241C157.538 68.8347 157.51 68.7872 157.494 68.7646C157.464 68.7578 157.396 68.7476 157.269 68.7476C154.355 68.7595 151.494 68.7657 148.754 68.7657C146.014 68.7657 143.129 68.7589 140.436 68.7465C140.474 70.318 140.467 71.9083 140.459 73.447C140.456 74.0682 140.454 74.6888 140.454 75.3099V76.1551C140.454 76.7073 140.01 77.1547 139.463 77.1547H135.534C134.986 77.1547 134.543 76.7073 134.543 76.1551V55.5217C134.543 54.9899 134.956 54.5515 135.482 54.5232C135.564 54.5187 135.645 54.513 135.727 54.5079C135.922 54.4949 136.124 54.4813 136.339 54.4808L148.457 54.4819C151.966 54.4819 155.474 54.4802 158.983 54.4723H159.021C160.744 54.4723 163.256 54.7037 165.171 56.7069C166.664 58.2683 167.34 60.3772 167.025 62.4936C166.701 64.6761 165.381 66.5668 163.403 67.6892C164.233 69.4672 165.048 71.282 165.837 73.038C166.095 73.6139 166.354 74.1904 166.614 74.7663C166.707 74.9722 166.793 75.1815 166.893 75.4259C166.942 75.543 166.993 75.6692 167.052 75.8072C167.181 76.1161 167.148 76.4691 166.965 76.7486C166.781 77.028 166.471 77.1955 166.139 77.1955C165.52 77.1955 164.931 77.1994 164.355 77.2028C163.801 77.2062 163.259 77.2096 162.716 77.2096H162.546C162.51 77.2107 162.475 77.2113 162.441 77.2113V77.213ZM140.451 60.4864C140.487 61.1862 140.487 61.9437 140.451 62.79C143.045 62.7821 145.635 62.7816 148.224 62.7804C151.748 62.7787 155.391 62.7776 158.973 62.7584C159.427 62.7561 159.966 62.626 160.491 62.3923C160.641 62.3256 160.994 62.1689 160.934 61.4866C160.907 61.1874 160.806 60.8598 160.25 60.7042C159.806 60.5798 159.3 60.5119 158.788 60.5079C157.516 60.4989 156.165 60.4944 154.407 60.4944C153.614 60.4944 150.487 60.4978 149.717 60.4978C148.898 60.4978 148.079 60.4989 147.26 60.5C146.44 60.5011 145.62 60.5023 144.801 60.5023C143.067 60.5023 141.717 60.4977 140.452 60.487L140.451 60.4864Z" fill="#010101"/>
<path d="M52.7146 77.2028C49.7919 77.2028 46.8704 77.2 43.9477 77.1932C40.0278 77.1842 36.8281 73.989 36.8146 70.0708C36.8062 67.5477 36.8057 64.8679 36.8146 61.6383C36.8247 57.7422 39.8635 54.6194 43.7329 54.5289C44.7845 54.5046 45.9068 54.4927 47.2652 54.4927C48.2069 54.4927 49.1486 54.4983 50.0903 54.5034C51.004 54.5085 51.9176 54.5142 52.8307 54.5142H52.9025C53.8122 54.5142 54.722 54.5096 55.6317 54.5051C56.5448 54.5006 57.4573 54.4961 58.3704 54.4961C59.7417 54.4961 60.8719 54.5068 61.9268 54.5294C65.7144 54.6109 68.6909 57.6511 68.7027 61.4499C68.7128 64.5036 68.7122 67.3435 68.7027 70.1314C68.6892 73.9522 65.439 77.1864 61.6055 77.1938C58.6418 77.2 55.6782 77.2028 52.7146 77.2028ZM52.2884 71.1983C53.0612 71.1983 53.8347 71.1995 54.6081 71.2011C55.3804 71.2023 56.1522 71.204 56.9245 71.204C57.9015 71.204 58.878 71.2017 59.855 71.1949C62.1237 71.1785 62.6784 70.6332 62.6806 68.4139C62.6829 66.6262 62.6846 64.8385 62.6806 63.0509C62.675 61.0024 62.1719 60.5017 60.1175 60.4995C57.9649 60.4972 55.8117 60.4949 53.6591 60.4949C50.8251 60.4949 48.4627 60.4983 46.2237 60.5063C45.6443 60.5085 45.019 60.5651 44.3117 60.6794C43.1277 60.8706 42.9415 61.4312 42.9174 62.0077C42.8305 64.0635 42.7492 66.7716 42.8961 69.4927C42.9438 70.3769 43.2281 71.1955 44.9668 71.1983C45.9253 71.2 46.8844 71.2 47.8435 71.2L52.2889 71.1989L52.2884 71.1983Z" fill="#010101"/>
<path d="M117.699 77.2017C114.841 77.2017 111.984 77.1994 109.127 77.1943C105.194 77.1876 101.982 74.0065 101.967 70.1036C101.957 67.417 101.957 64.6314 101.967 61.5873C101.979 57.7874 104.992 54.681 108.825 54.5147C108.899 54.5113 108.973 54.5068 109.046 54.5023C109.201 54.4927 109.36 54.4825 109.532 54.4825C111.214 54.4813 112.897 54.4808 114.579 54.4808H117.943C118.032 54.4808 118.118 54.4927 118.201 54.5147C119.039 54.5141 119.877 54.5096 120.716 54.5051C121.643 54.5 122.571 54.4955 123.499 54.4955C124.862 54.4955 125.987 54.5062 127.039 54.5289C130.903 54.6137 133.824 57.6109 133.833 61.5019C133.841 64.5766 133.841 67.3888 133.833 70.0985C133.823 74.006 130.622 77.1892 126.7 77.1949C123.7 77.1989 120.699 77.2017 117.699 77.2017H117.699ZM117.442 71.1983C118 71.1983 118.558 71.1994 119.116 71.2011C119.672 71.2028 120.229 71.204 120.785 71.204C121.679 71.204 122.411 71.2 123.089 71.1921L123.273 71.1898C124.25 71.1785 125.259 71.1672 126.21 71.0467C127.256 70.9143 127.774 70.3944 127.794 69.4559C127.845 67.0499 127.846 64.6201 127.795 62.2334C127.775 61.2677 127.343 60.7919 126.305 60.5917C125.996 60.5317 125.651 60.5023 125.251 60.5017C122.875 60.4977 120.499 60.4949 118.122 60.4949C115.895 60.4949 113.668 60.4978 111.441 60.5057C110.825 60.5079 110.153 60.5668 109.443 60.6799C108.252 60.8706 108.069 61.46 108.047 62.0122C107.927 64.9867 107.926 67.3933 108.042 69.5871C108.079 70.2762 108.326 71.1932 110.037 71.1972C111.032 71.1994 112.027 71.2 113.022 71.2L117.289 71.1989H117.442L117.442 71.1983Z" fill="#010101"/>
<path d="M83.317 77.1559C82.7696 77.1559 82.326 76.7084 82.326 76.1563V60.5289H70.9343C70.0963 60.5289 69.4143 59.8415 69.4143 58.9958V56.0631C69.4143 55.2179 70.0958 54.53 70.9343 54.53H99.7347C100.573 54.53 101.255 55.2173 101.255 56.0631V58.9483C101.255 59.7934 100.573 60.4814 99.7347 60.4814H88.3934V76.1563C88.3934 76.7084 87.9498 77.1559 87.4024 77.1559H83.317Z" fill="#010101"/>
<g filter="url(#filter0_d_894_3419)">
<path d="M64.4692 53.1168C63.9218 53.1168 63.4782 52.6694 63.4782 52.1172V44.7238C61.9397 44.7238 55.7697 44.7267 54.2233 44.7267C51.2939 44.7267 47.4324 44.7244 43.5433 44.7069C43.5433 44.7069 43.5231 44.7069 43.5142 44.7069C43.5501 46.4736 43.5433 48.2743 43.5372 50.0156C43.5349 50.7097 43.5321 51.4072 43.5321 52.1082C43.5321 52.6603 43.0885 53.1078 42.5411 53.1078H38.5875C38.0609 53.1078 37.6262 52.6925 37.5976 52.1625C37.5931 52.0754 37.5869 51.9882 37.5808 51.9017C37.5662 51.6895 37.551 51.47 37.551 51.2375L37.5499 49.4142C37.5471 45.5424 37.5443 41.5389 37.551 37.6009C37.5572 33.7252 40.6739 30.5379 44.4985 30.4949C47.5345 30.461 50.5884 30.444 53.5755 30.444C56.5627 30.444 59.6531 30.4615 62.6352 30.4966C66.425 30.5407 69.5103 33.7138 69.5131 37.5692C69.5154 40.7559 69.5148 43.942 69.5142 47.1287V52.1172C69.5142 52.6694 69.07 53.1168 68.5226 53.1168H64.4687H64.4692ZM53.902 36.4587C51.6108 36.4587 49.3203 36.461 47.0286 36.4661C46.5485 36.4672 46.0381 36.5074 45.512 36.5866C43.9741 36.8168 43.6179 37.2038 43.5203 38.7606C47.3998 38.7419 51.2165 38.7391 54.441 38.7391L63.4715 38.7408C63.4715 38.5903 63.4687 38.4438 63.4625 38.3018C63.4165 37.2592 62.9757 36.7518 61.9425 36.5521C61.6436 36.4944 61.2975 36.4661 60.8847 36.4649C58.5572 36.4615 56.229 36.4593 53.9014 36.4593L53.902 36.4587Z" fill="#010101"/>
<path d="M64.4692 43.7248C64.0486 43.7248 63.7748 43.7248 63.5011 43.7248C56.8498 43.7248 50.1985 43.7378 43.5472 43.7078C42.7469 43.7044 42.5062 43.9205 42.5225 44.7182C42.5724 47.1638 42.5405 49.6117 42.5405 52.1093H38.5869C38.5712 51.8191 38.5426 51.5283 38.542 51.2375C38.5392 46.6926 38.5348 42.1481 38.542 37.6032C38.5477 34.2903 41.1557 31.533 44.5091 31.4951C50.5468 31.4278 56.5862 31.4261 62.6234 31.4968C65.937 31.5358 68.5192 34.292 68.522 37.5704C68.5254 42.1425 68.5226 46.7152 68.5226 51.2873C68.5226 51.5555 68.5226 51.8236 68.5226 52.1178H64.4686V43.7248H64.4692ZM64.4563 39.6997C64.4563 39.1776 64.4737 38.7159 64.4529 38.2566C64.3862 36.7557 63.6167 35.8574 62.1298 35.5694C61.7238 35.4908 61.3014 35.4653 60.8864 35.4648C56.2665 35.458 51.6461 35.4557 47.0263 35.4659C46.4727 35.467 45.9141 35.5151 45.3661 35.5971C43.3403 35.9004 42.6538 36.698 42.5298 38.7108C42.4827 39.4751 42.6745 39.7636 43.5169 39.7597C50.1963 39.7269 56.8762 39.7421 63.5555 39.7399C63.8264 39.7399 64.0979 39.7161 64.4552 39.6997H64.4563Z" fill="url(#paint5_linear_894_3419)"/>
<path d="M151.678 53.17C148.821 53.17 145.794 53.1649 142.424 53.1542C138.647 53.1423 135.402 49.9771 135.336 46.2422C135.287 43.4046 135.287 40.4193 135.335 37.3684C135.395 33.6595 138.452 30.5747 142.15 30.4921C143.23 30.4678 144.385 30.4565 145.785 30.4565C146.731 30.4565 147.677 30.4615 148.624 30.4666C149.562 30.4717 150.499 30.4768 151.437 30.4768C152.361 30.4768 153.278 30.4723 154.194 30.4672C155.115 30.4627 156.035 30.4576 156.955 30.4576C158.309 30.4576 159.427 30.4678 160.472 30.4904C164.353 30.573 167.282 33.573 167.284 37.4685V38.5807C167.287 41.1027 167.288 43.6241 167.283 46.1461C167.276 49.9273 164.075 53.1349 160.295 53.1513C157.546 53.1632 154.728 53.1689 151.678 53.1689V53.17ZM150.851 47.161C151.197 47.161 151.543 47.1627 151.889 47.1638C152.232 47.1655 152.575 47.1666 152.918 47.1666C153.336 47.1666 153.753 47.1644 154.17 47.157C154.627 47.1491 155.085 47.1451 155.542 47.1406C156.881 47.1282 158.265 47.1151 159.601 47.0065C160.667 46.9194 161.199 46.395 161.229 45.4033C161.304 42.9696 161.305 40.5466 161.232 38.2017C161.205 37.3452 160.932 36.767 159.655 36.534C159.39 36.4859 159.085 36.4638 158.67 36.4632H158.505C156.187 36.4604 153.869 36.4576 151.55 36.4576C149.231 36.4576 147.067 36.4604 144.825 36.4683C144.204 36.4706 143.531 36.5294 142.825 36.6437C141.621 36.8383 141.439 37.4663 141.42 38.0552C141.353 40.0906 141.294 42.7738 141.422 45.474C141.459 46.2564 141.721 47.1553 143.427 47.1593C144.422 47.1615 145.417 47.1621 146.412 47.1621L150.691 47.161H150.851Z" fill="#010101"/>
<path d="M151.437 31.477C154.441 31.477 157.447 31.4267 160.451 31.4906C163.803 31.5619 166.291 34.1591 166.293 37.4702C166.295 40.3616 166.298 43.2536 166.293 46.1449C166.286 49.3294 163.513 52.1387 160.292 52.1523C154.337 52.1777 148.382 52.1727 142.428 52.154C139.186 52.1438 136.384 49.4351 136.328 46.2241C136.276 43.2784 136.28 40.3305 136.327 37.3842C136.378 34.2468 139.022 31.5613 142.173 31.4911C145.26 31.4221 148.349 31.4759 151.438 31.4764L151.437 31.477ZM150.851 48.1606C151.963 48.1606 153.075 48.1759 154.188 48.1572C156.02 48.1261 157.859 48.1521 159.681 48.0033C161.26 47.8743 162.174 46.9364 162.22 45.4344C162.294 43.0148 162.298 40.5902 162.223 38.1706C162.175 36.6369 161.351 35.8279 159.832 35.5507C159.452 35.4812 159.058 35.4642 158.671 35.4636C154.054 35.458 149.438 35.4517 144.822 35.4681C144.103 35.471 143.378 35.5411 142.668 35.656C141.293 35.8783 140.475 36.6522 140.43 38.0218C140.348 40.52 140.314 43.0267 140.432 45.5215C140.515 47.2843 141.641 48.1544 143.425 48.1589C145.9 48.1645 148.375 48.16 150.851 48.1606Z" fill="url(#paint6_linear_894_3419)"/>
<path d="M5.36971 53.1236C4.82231 53.1236 4.37866 52.6761 4.37866 52.124V31.4827C4.37866 30.9503 4.79258 30.5113 5.3198 30.4842C5.39663 30.4802 5.47459 30.4751 5.55312 30.47C5.74661 30.4576 5.94628 30.4446 6.15997 30.444L18.2971 30.4457C21.7885 30.4457 25.2788 30.4434 28.7707 30.4355H28.81C30.556 30.4355 33.0995 30.6782 35.0233 32.7793C36.993 34.9301 37.4148 37.5053 36.2431 40.2258C35.0182 43.0703 32.7366 44.6577 29.819 44.6961C27.3018 44.7295 24.548 44.7453 21.3998 44.7453C18.6084 44.7453 15.7721 44.7329 13.0289 44.721L10.2779 44.7097C10.316 46.2779 10.3081 47.8641 10.3014 49.3995C10.2986 50.0218 10.2958 50.6446 10.2958 51.2675V52.1246C10.2958 52.6767 9.85215 53.1242 9.30475 53.1242H5.36971V53.1236ZM10.2924 36.4474C10.3295 37.2128 10.3283 37.9878 10.2896 38.7555C13.329 38.7431 16.4064 38.7419 19.3841 38.7408C22.4043 38.7397 25.5272 38.7386 28.598 38.7255C29.0837 38.7233 29.6232 38.6198 30.1168 38.4342C30.6463 38.2345 30.6911 37.7406 30.6704 37.464C30.6362 37.0041 30.4023 36.7478 29.9115 36.6341C29.4533 36.5283 28.9586 36.4706 28.4802 36.4678C27.2205 36.4604 25.8795 36.457 24.1329 36.457C23.3645 36.457 19.5613 36.4593 19.5613 36.4593C18.7352 36.4593 17.9084 36.4604 17.0823 36.4615C16.255 36.4627 15.4277 36.4638 14.6004 36.4638C12.8859 36.4638 11.5482 36.4587 10.2936 36.4463L10.2924 36.4474Z" fill="#010101"/>
<path d="M9.30354 52.124H5.36963V31.4827C5.62819 31.4696 5.89404 31.4442 6.16045 31.4442C13.6979 31.4419 21.2354 31.4527 28.7729 31.4357C30.8829 31.4306 32.8173 31.8441 34.2952 33.4581C36.0266 35.3488 36.3227 37.533 35.3345 39.8281C34.3126 42.2002 32.4387 43.6626 29.8066 43.6971C23.2994 43.7825 16.7905 43.7355 10.2823 43.7101C9.54303 43.7072 9.26597 43.8702 9.2856 44.661C9.34112 46.8617 9.30467 49.0652 9.30467 51.2669C9.30467 51.5356 9.30467 51.8038 9.30467 52.124H9.30354ZM19.5607 35.4602C16.4187 35.4602 13.2767 35.4778 10.1353 35.4461C9.46732 35.4393 9.25475 35.6452 9.29177 36.293C9.34056 37.1432 9.34056 38.0003 9.29177 38.8506C9.25363 39.517 9.45161 39.7585 10.1678 39.7557C16.3127 39.7303 22.4575 39.7512 28.6018 39.7257C29.2255 39.7229 29.88 39.5905 30.4633 39.371C31.3119 39.0508 31.723 38.2639 31.6585 37.3904C31.5935 36.5153 31.0668 35.8766 30.133 35.6605C29.5974 35.5366 29.0365 35.4721 28.4863 35.4687C25.5114 35.4506 22.5361 35.4602 19.5612 35.4602H19.5607Z" fill="url(#paint7_linear_894_3419)"/>
<path d="M196.88 53.1553C196.149 53.1553 195.586 53.1474 195.055 53.1298C194.548 53.1129 194.171 52.8238 193.922 52.632C193.883 52.602 193.845 52.5726 193.807 52.546C189.861 49.7395 185.917 46.9313 181.972 44.1236C179.276 42.2041 176.579 40.2852 173.882 38.3663V52.1127C173.882 52.6648 173.439 53.1123 172.891 53.1123H168.938C168.39 53.1123 167.947 52.6648 167.947 52.1127V31.5019C167.947 30.9498 168.39 30.5023 168.938 30.5023C169.256 30.5023 169.573 30.5011 169.888 30.5C170.205 30.4989 170.522 30.4977 170.837 30.4977C171.586 30.4977 172.159 30.5045 172.698 30.5192C173.19 30.5328 173.553 30.8066 173.793 30.9877C173.824 31.0114 173.854 31.034 173.884 31.0555C179.147 34.8108 184.408 38.5688 189.67 42.3263L193.782 45.263V31.5324C193.782 30.9803 194.226 30.5328 194.773 30.5328H198.797C199.344 30.5328 199.788 30.9803 199.788 31.5324V52.1495C199.788 52.7016 199.344 53.1491 198.797 53.1491C198.48 53.1491 198.163 53.1508 197.845 53.1519C197.523 53.1536 197.202 53.1547 196.879 53.1547L196.88 53.1553Z" fill="#010101"/>
<path d="M172.892 36.5164V52.1127H168.939V31.5019C170.194 31.5019 171.434 31.4844 172.672 31.5183C172.89 31.5245 173.113 31.7293 173.313 31.8713C180.172 36.7659 187.028 41.6639 193.885 46.5602C194.129 46.7344 194.378 46.903 194.775 47.1779V31.5324H198.798V52.1495C197.568 52.1495 196.327 52.1715 195.088 52.1308C194.847 52.1229 194.602 51.8875 194.379 51.7291C187.468 46.813 180.56 41.893 173.649 36.9758C173.472 36.8502 173.277 36.7489 172.893 36.5164H172.892Z" fill="url(#paint8_linear_894_3419)"/>
<path d="M84.1242 53.1016C83.5768 53.1016 83.1332 52.6541 83.1332 52.1019V36.5153H71.696C70.858 36.5153 70.176 35.8279 70.176 34.9822V32.0388C70.176 31.1936 70.8575 30.5057 71.696 30.5057H100.55C101.388 30.5057 102.07 31.193 102.07 32.0388V34.8781C102.07 35.7233 101.388 36.4112 100.55 36.4112H89.1787V52.1019C89.1787 52.6541 88.7351 53.1016 88.1877 53.1016H84.1242Z" fill="#010101"/>
<path d="M88.1873 35.4116V52.1019H84.1238V35.5157H71.6956C71.4034 35.5157 71.1672 35.2769 71.1672 34.9828V32.0393C71.1672 31.7446 71.4039 31.5064 71.6956 31.5064H100.549C100.842 31.5064 101.078 31.7452 101.078 32.0393V34.8787C101.078 35.1734 100.841 35.4116 100.549 35.4116H88.1867H88.1873Z" fill="url(#paint9_linear_894_3419)"/>
<path d="M116.663 53.1112C116.116 53.1112 115.672 52.6637 115.672 52.1115V36.4853H104.25C103.412 36.4853 102.73 35.7979 102.73 34.9522V32.0314C102.73 31.1862 103.411 30.4983 104.25 30.4983H133.118C133.956 30.4983 134.638 31.1857 134.638 32.0314V34.8934C134.638 35.7385 133.957 36.4265 133.118 36.4265H121.732V52.1121C121.732 52.6643 121.288 53.1117 120.741 53.1117H116.663V53.1112Z" fill="#010101"/>
<path d="M116.663 52.1116V35.4851H104.25C103.958 35.4851 103.721 35.2464 103.721 34.9522V32.0314C103.721 31.7367 103.958 31.4985 104.25 31.4985H133.118C133.41 31.4985 133.646 31.7372 133.646 32.0314V34.8934C133.646 35.1881 133.41 35.4263 133.118 35.4263H120.741V52.1116H116.663Z" fill="url(#paint10_linear_894_3419)"/>
</g>
<path d="M19.0901 77.2266C18.2045 77.2266 17.3806 76.7854 16.8848 76.0465L10.2492 66.0673V75.6013C10.2492 76.4946 9.52846 77.2215 8.64285 77.2215H5.60632C4.72071 77.2215 4 76.4946 4 75.6013V56.3884C4 55.4951 4.72071 54.7682 5.60632 54.7682H8.32876C9.24802 54.7682 10.0955 55.2326 10.5958 56.0099L20.241 70.9896L29.8862 56.0099C30.3871 55.2326 31.2345 54.7682 32.1532 54.7682H34.8757C35.7613 54.7682 36.482 55.4951 36.482 56.3884V75.6013C36.482 76.4946 35.7613 77.2215 34.8757 77.2215H31.8386C30.953 77.2215 30.2323 76.4946 30.2323 75.6013V66.0673L23.5989 76.0431C23.1009 76.7853 22.2769 77.2266 21.3925 77.2266H19.0895H19.0901Z" fill="#010101"/>
<g filter="url(#filter1_d_894_3419)">
<path d="M199.298 59.9976H198.798L175.971 60.0083L175.972 60.0093C175.513 60.0102 175.039 60.0716 174.601 60.1929L174.415 60.2486C173.816 60.4429 173.464 60.8514 173.382 61.4634L173.369 61.5884C173.332 62.112 173.731 62.7633 174.378 62.9868L174.58 63.0513C175.058 63.1919 175.58 63.2639 176.084 63.2661H176.083C177.457 63.2719 178.831 63.2739 180.204 63.2749H188.448C189.822 63.2761 191.197 63.2786 192.572 63.2847L192.804 63.2906C197.666 63.4756 200.859 68.7676 198.515 73.0484L198.514 73.0474C197.272 75.3157 195.215 76.6454 192.611 76.6704H192.607L168.837 76.7144L168.338 76.7154L168.336 76.2154L168.325 72.2154L168.324 71.7154L168.825 71.7144L191.615 71.6822L191.822 71.6753C192.237 71.6499 192.67 71.5552 193.079 71.4146L193.282 71.3404C193.832 71.127 194.145 70.7104 194.178 70.1236L194.181 70.0044C194.177 69.388 193.883 68.9287 193.381 68.6958L193.279 68.6519C192.734 68.4435 192.123 68.3176 191.529 68.2867L191.276 68.2798C188.584 68.2634 185.892 68.2586 183.2 68.2583L175.123 68.2613C171.583 68.2605 168.579 65.4079 168.341 61.9048L168.326 61.564C168.269 57.9968 171.087 55.0642 174.814 55.0347L177.747 55.0161C184.652 54.9832 191.946 55.0152 198.798 55.0152H199.298V59.9976Z" fill="url(#paint11_linear_894_3419)" stroke="black"/>
<path d="M159.381 54.9781C161.367 55.0232 163.295 55.4654 164.817 57.0572H164.818L165.086 57.354C167.653 60.3762 166.884 64.9031 163.47 67.0699L163.12 67.2788C162.831 67.4404 162.811 67.5107 162.814 67.5015C162.819 67.4888 162.802 67.5164 162.849 67.6499L162.92 67.8218V67.8228L163.745 69.607C164.563 71.3947 165.361 73.1902 166.166 74.9761L166.599 76.0054L166.246 76.1519L166.363 76.6441L166.362 76.6451L165.883 76.8863L165.804 76.6988C164.677 76.7011 163.591 76.7118 162.547 76.7105L162.548 76.7115C162.546 76.7115 162.543 76.7104 162.541 76.7105C162.536 76.7105 162.532 76.7115 162.527 76.7115V76.7105C162.197 76.7216 161.876 76.6748 161.595 76.4908C161.382 76.351 161.231 76.159 161.116 75.9458L161.013 75.7261C160.286 73.9937 159.508 72.2404 158.761 70.4859L158.027 68.732C157.921 68.4726 157.828 68.3798 157.756 68.3355C157.697 68.2991 157.607 68.2675 157.444 68.2544L157.256 68.2476C153.05 68.265 148.845 68.2708 144.639 68.2613L140.434 68.2466C140.263 68.2458 140.148 68.2563 140.07 68.273C139.996 68.2889 139.981 68.3047 139.986 68.3003C140.005 68.2835 139.933 68.3191 139.942 68.69L139.97 70.3482C139.983 72.0071 139.962 73.6664 139.962 75.3101V76.6558H135.033V55.0493L135.506 55.024C135.748 55.0109 136.054 54.982 136.338 54.982L147.661 54.9829C151.435 54.9832 155.209 54.9821 158.983 54.9742L159.381 54.9781ZM140.121 59.9908C140.073 59.9946 140.035 59.9996 140.005 60.0064C139.985 60.0108 139.971 60.0149 139.963 60.0181C139.954 60.0453 139.939 60.1206 139.949 60.2896V60.2906L139.979 60.9673C139.991 61.4182 139.99 61.8688 139.978 62.3169L139.952 62.9878C139.946 63.1151 139.953 63.1937 139.963 63.2408C139.965 63.2486 139.966 63.2553 139.968 63.2603C139.972 63.2616 139.976 63.2636 139.981 63.2652C140.025 63.2777 140.104 63.2909 140.238 63.2906L149.609 63.2788C152.731 63.2773 155.853 63.2747 158.977 63.2583L159.187 63.2495C159.682 63.2132 160.211 63.0627 160.688 62.8501L160.787 62.8013C161.199 62.5805 161.418 62.2026 161.432 61.689L161.423 61.4419C161.393 61.1004 161.281 60.8456 161.117 60.6568C160.973 60.4899 160.769 60.3529 160.5 60.2593L160.381 60.2212C159.877 60.0798 159.329 60.0111 158.792 60.0074H158.791C157.279 59.9963 155.768 59.9944 154.256 59.9947L149.717 59.9976C146.582 59.9976 143.441 60.0121 140.301 59.9849L140.121 59.9908Z" fill="url(#paint12_linear_894_3419)" stroke="black"/>
<path d="M52.8303 55.0131H53.0979C56.0238 55.0113 58.9755 54.9655 61.9163 55.0287L62.2483 55.0434C65.6559 55.2816 68.1998 58.0346 68.2112 61.4506L68.219 65.7905L68.2112 70.1293C68.1987 73.5834 65.3769 76.499 61.9387 76.684L61.6038 76.6938C58.6613 76.6997 55.719 76.7025 52.7766 76.7026L43.9485 76.6928C40.4353 76.6844 37.5067 73.8623 37.3157 70.4047L37.3059 70.0688C37.2964 67.2587 37.2981 64.4476 37.3059 61.6381C37.3153 58.0606 40.1247 55.1129 43.7444 55.0278L44.8811 55.0063C47.5354 54.9695 50.1947 55.0126 52.8303 55.0131ZM46.2219 60.0063C45.73 60.0079 45.2311 60.0468 44.7327 60.1118L44.2346 60.185C43.623 60.2838 43.1893 60.4868 42.9055 60.7651C42.6647 61.0012 42.4968 61.3255 42.4426 61.7817L42.426 61.9858C42.3197 64.5037 42.2705 67.0226 42.4055 69.52L42.4329 69.812C42.5178 70.4608 42.7609 70.8903 43.0999 71.1723C43.4987 71.504 44.1072 71.6963 44.9661 71.6977H52.2893C54.8173 71.6977 57.3364 71.7119 59.8577 71.6938L60.3469 71.6791C61.4268 71.6185 62.0743 71.3774 62.4719 70.9819C62.9245 70.5315 63.1695 69.7649 63.1711 68.4135V63.0483C63.1678 61.7859 62.9327 61.0705 62.5149 60.6528C62.1493 60.2874 61.5559 60.0616 60.5667 60.0102L60.1174 59.9995C57.8011 59.9972 55.485 59.9943 53.1692 59.9946L46.2219 60.0063Z" fill="url(#paint13_linear_894_3419)" stroke="black"/>
<path d="M118.442 54.9792V55.0134C121.291 55.0085 124.164 54.9664 127.028 55.029L127.366 55.0437C130.832 55.2834 133.333 58.0141 133.341 61.5027L133.347 65.7995L133.341 70.0974C133.331 73.6071 130.525 76.5033 127.037 76.6853L126.698 76.695C123.769 76.699 120.841 76.7008 117.912 76.7009L109.127 76.6941C105.597 76.6875 102.661 73.8956 102.468 70.4372L102.458 70.1003C102.448 67.2625 102.449 64.4245 102.458 61.5876L102.467 61.2585C102.646 57.8738 105.402 55.1626 108.846 55.0134L109.17 54.9939C109.29 54.9869 109.416 54.9815 109.531 54.9812H109.532L117.942 54.9792H118.442ZM111.44 60.0056C110.926 60.0072 110.405 60.0463 109.886 60.112L109.368 60.1862C108.768 60.2823 108.331 60.4881 108.042 60.7712C107.797 61.0121 107.626 61.34 107.573 61.7907L107.557 61.9919C107.455 64.5373 107.419 67.086 107.553 69.614L107.577 69.8806C107.659 70.4768 107.903 70.8924 108.243 71.1726C108.643 71.5013 109.241 71.6949 110.037 71.697H110.036C112.504 71.7026 114.972 71.698 117.442 71.698L120.272 71.7029C121.213 71.7041 122.154 71.7034 123.095 71.6921L123.905 71.6814C124.708 71.6682 125.496 71.6404 126.271 71.5427L126.515 71.5036C127.064 71.3956 127.475 71.1738 127.757 70.8796C128.077 70.5467 128.271 70.0802 128.284 69.4665L128.315 67.656C128.328 66.4485 128.327 65.2406 128.315 64.0329L128.286 62.2224C128.273 61.5735 128.094 61.1181 127.806 60.7966C127.55 60.5116 127.17 60.2906 126.635 60.154L126.397 60.1003C126.123 60.0475 125.836 60.0188 125.545 60.0075L125.252 60.0017C122.95 59.998 120.647 59.995 118.345 59.9948L111.44 60.0056Z" fill="url(#paint14_linear_894_3419)" stroke="black"/>
<path d="M99.7351 55.0308C100.308 55.0309 100.763 55.4982 100.763 56.064V58.9487C100.763 59.5158 100.306 59.9818 99.7351 59.9819H87.9021V76.1567H87.4021V76.6567H82.8171V60.0288H70.9343C70.3617 60.0288 69.9061 59.5624 69.906 58.9966V56.064C69.906 55.4968 70.3628 55.0308 70.9343 55.0308H99.7351Z" fill="url(#paint15_linear_894_3419)" stroke="black"/>
<path d="M34.8777 55.2667C35.4974 55.2669 35.9927 55.7722 35.9929 56.3868V75.6006C35.9929 76.2154 35.4976 76.7215 34.8777 76.7217H31.8406C31.2205 76.7217 30.7253 76.2155 30.7253 75.6006V64.7413C30.7101 64.7366 30.693 64.731 30.6746 64.7276C30.6175 64.7171 30.5667 64.7183 30.533 64.7237L23.1931 75.7628L23.1921 75.7647C22.7887 76.3652 22.1156 76.7265 21.3933 76.7266H19.0896V76.7256C18.3672 76.7261 17.6935 76.365 17.2908 75.7647L17.2898 75.7628L9.94995 64.7237C9.91618 64.7183 9.86529 64.717 9.80835 64.7276C9.79007 64.731 9.77365 64.7366 9.75854 64.7413V75.6006C9.75854 76.2155 9.26339 76.7217 8.64331 76.7217H5.6062C4.98614 76.7217 4.49097 76.2155 4.49097 75.6006V56.3878C4.491 55.7729 4.98616 55.2677 5.6062 55.2676H8.32886C9.07936 55.2677 9.77818 55.6509 10.1853 56.2833L20.0447 71.5958L20.0847 71.6436C20.1878 71.7382 20.3559 71.7222 20.4373 71.5958L30.2966 56.2833L30.3767 56.1671C30.7916 55.604 31.4489 55.2677 32.1531 55.2676H34.7927L34.7957 55.2667H34.8777Z" fill="url(#paint16_linear_894_3419)" stroke="black"/>
</g>
<path d="M160.215 103.098C159.391 103.098 158.68 102.916 158.082 102.552C157.487 102.184 157.029 101.672 156.705 101.014C156.386 100.353 156.226 99.5841 156.226 98.7075C156.226 97.831 156.386 97.0584 156.705 96.3898C157.029 95.7175 157.478 95.1938 158.054 94.8187C158.633 94.4398 159.309 94.2504 160.082 94.2504C160.527 94.2504 160.968 94.3247 161.402 94.4732C161.837 94.6218 162.232 94.8632 162.589 95.1975C162.945 95.5281 163.23 95.9664 163.441 96.5124C163.653 97.0584 163.759 97.7307 163.759 98.5292V99.0864H157.162V97.9498H162.422C162.422 97.467 162.325 97.0361 162.132 96.6572C161.943 96.2784 161.671 95.9794 161.319 95.7602C160.969 95.5411 160.557 95.4315 160.082 95.4315C159.558 95.4315 159.105 95.5615 158.722 95.8215C158.343 96.0778 158.052 96.4121 157.848 96.8244C157.643 97.2367 157.541 97.6787 157.541 98.1504V98.9081C157.541 99.5544 157.653 100.102 157.875 100.552C158.102 100.997 158.416 101.337 158.817 101.571C159.218 101.802 159.684 101.917 160.215 101.917C160.561 101.917 160.873 101.868 161.151 101.772C161.434 101.672 161.677 101.523 161.881 101.326C162.086 101.126 162.243 100.877 162.355 100.58L163.625 100.936C163.491 101.367 163.267 101.746 162.951 102.073C162.635 102.396 162.245 102.648 161.781 102.83C161.317 103.009 160.795 103.098 160.215 103.098Z" fill="white"/>
<path d="M150.115 103.098C149.401 103.098 148.772 102.918 148.226 102.557C147.68 102.193 147.253 101.681 146.944 101.02C146.636 100.355 146.482 99.5693 146.482 98.663C146.482 97.7641 146.636 96.9841 146.944 96.323C147.253 95.6618 147.682 95.1511 148.231 94.7908C148.781 94.4305 149.416 94.2504 150.137 94.2504C150.694 94.2504 151.134 94.3433 151.457 94.529C151.784 94.711 152.033 94.919 152.204 95.153C152.378 95.3833 152.514 95.5727 152.611 95.7213H152.722V91.5093H154.037V102.92H152.767V101.605H152.611C152.514 101.761 152.377 101.958 152.198 102.195C152.02 102.429 151.766 102.639 151.435 102.825C151.104 103.007 150.664 103.098 150.115 103.098ZM150.293 101.917C150.82 101.917 151.266 101.779 151.63 101.504C151.994 101.226 152.271 100.841 152.46 100.351C152.65 99.8571 152.744 99.287 152.744 98.6407C152.744 98.0018 152.651 97.4428 152.466 96.9637C152.28 96.4808 152.005 96.1057 151.641 95.8383C151.277 95.5671 150.828 95.4315 150.293 95.4315C149.736 95.4315 149.271 95.5745 148.9 95.8605C148.532 96.1428 148.256 96.5273 148.07 97.0138C147.888 97.4967 147.797 98.039 147.797 98.6407C147.797 99.2498 147.89 99.8033 148.075 100.301C148.265 100.795 148.543 101.189 148.911 101.482C149.283 101.772 149.743 101.917 150.293 101.917Z" fill="white"/>
<path d="M140.561 103.12C140.019 103.12 139.527 103.018 139.085 102.814C138.643 102.606 138.292 102.307 138.032 101.917C137.772 101.523 137.642 101.048 137.642 100.49C137.642 100 137.738 99.6027 137.931 99.2981C138.124 98.9898 138.383 98.7484 138.706 98.5738C139.029 98.3992 139.385 98.2692 139.775 98.1838C140.169 98.0947 140.565 98.0241 140.962 97.9721C141.482 97.9052 141.904 97.8551 142.227 97.8217C142.554 97.7845 142.791 97.7232 142.94 97.6378C143.092 97.5524 143.168 97.4038 143.168 97.1921V97.1475C143.168 96.5978 143.018 96.1707 142.717 95.8661C142.42 95.5615 141.969 95.4092 141.363 95.4092C140.736 95.4092 140.243 95.5467 139.887 95.8215C139.53 96.0964 139.28 96.3898 139.135 96.7018L137.887 96.2561C138.11 95.7361 138.407 95.3312 138.778 95.0415C139.153 94.7481 139.562 94.5438 140.004 94.4287C140.45 94.3098 140.888 94.2504 141.319 94.2504C141.594 94.2504 141.909 94.2838 142.266 94.3507C142.626 94.4138 142.973 94.5457 143.308 94.7462C143.646 94.9468 143.926 95.2495 144.149 95.6544C144.372 96.0592 144.483 96.6015 144.483 97.2812V102.92H143.168V101.761H143.102C143.012 101.946 142.864 102.145 142.656 102.357C142.448 102.569 142.171 102.749 141.826 102.897C141.48 103.046 141.059 103.12 140.561 103.12ZM140.762 101.939C141.282 101.939 141.72 101.837 142.076 101.633C142.437 101.428 142.708 101.165 142.89 100.841C143.076 100.518 143.168 100.178 143.168 99.8218V98.6184C143.113 98.6852 142.99 98.7465 142.801 98.8022C142.615 98.8542 142.4 98.9007 142.154 98.9415C141.913 98.9787 141.677 99.0121 141.447 99.0418C141.22 99.0678 141.036 99.0901 140.895 99.1087C140.554 99.1532 140.234 99.2257 139.937 99.326C139.644 99.4225 139.406 99.5692 139.224 99.7661C139.046 99.9592 138.956 100.223 138.956 100.557C138.956 101.014 139.125 101.36 139.463 101.594C139.805 101.824 140.238 101.939 140.762 101.939Z" fill="white"/>
<path d="M132.205 102.92V94.3618H133.475V95.6544H133.565C133.721 95.231 134.003 94.8874 134.411 94.6237C134.82 94.36 135.281 94.2281 135.793 94.2281C135.89 94.2281 136.01 94.23 136.155 94.2337C136.3 94.2374 136.41 94.243 136.484 94.2504V95.5875C136.439 95.5764 136.337 95.5597 136.178 95.5374C136.022 95.5114 135.856 95.4984 135.682 95.4984C135.266 95.4984 134.894 95.5857 134.567 95.7603C134.244 95.9311 133.988 96.1688 133.799 96.4734C133.613 96.7743 133.52 97.1178 133.52 97.5041V102.92H132.205Z" fill="white"/>
<path d="M122.582 92.735V91.5093H131.14V92.735H127.552V102.92H126.17V92.735H122.582Z" fill="white"/>
<path d="M107.382 91.5093V102.92H106.067V91.5093H107.382Z" fill="white"/>
<path d="M103.659 91.5093V102.92H102.344V91.5093H103.659Z" fill="white"/>
<path d="M96.8002 103.098C95.9756 103.098 95.2643 102.916 94.6663 102.552C94.072 102.184 93.6133 101.672 93.2902 101.014C92.9707 100.353 92.811 99.5841 92.811 98.7075C92.811 97.831 92.9707 97.0584 93.2902 96.3898C93.6133 95.7175 94.0627 95.1938 94.6385 94.8187C95.2179 94.4398 95.8939 94.2504 96.6665 94.2504C97.1122 94.2504 97.5523 94.3247 97.9869 94.4732C98.4215 94.6218 98.817 94.8632 99.1736 95.1975C99.5302 95.5281 99.8143 95.9664 100.026 96.5124C100.238 97.0584 100.344 97.7307 100.344 98.5292V99.0864H93.747V97.9498H99.0065C99.0065 97.467 98.9099 97.0361 98.7167 96.6572C98.5273 96.2784 98.2562 95.9794 97.9033 95.7602C97.5542 95.5411 97.1419 95.4315 96.6665 95.4315C96.1427 95.4315 95.6896 95.5615 95.307 95.8215C94.9282 96.0778 94.6366 96.4121 94.4323 96.8244C94.228 97.2367 94.1259 97.6787 94.1259 98.1504V98.9081C94.1259 99.5544 94.2373 100.102 94.4602 100.552C94.6867 100.997 95.0006 101.337 95.4018 101.571C95.8029 101.802 96.269 101.917 96.8002 101.917C97.1456 101.917 97.4576 101.868 97.7362 101.772C98.0185 101.672 98.2618 101.523 98.466 101.326C98.6703 101.126 98.8282 100.877 98.9396 100.58L100.21 100.936C100.076 101.367 99.8515 101.746 99.5357 102.073C99.22 102.396 98.83 102.648 98.3657 102.83C97.9015 103.009 97.3796 103.098 96.8002 103.098Z" fill="white"/>
<path d="M89.6256 94.3618C89.5587 93.7973 89.2876 93.359 88.8121 93.047C88.3367 92.735 87.7536 92.579 87.0627 92.579C86.5575 92.579 86.1155 92.6607 85.7367 92.8241C85.3615 92.9875 85.0681 93.2123 84.8564 93.4983C84.6484 93.7843 84.5444 94.1093 84.5444 94.4733C84.5444 94.7778 84.6168 95.0397 84.7617 95.2588C84.9103 95.4743 85.0997 95.6544 85.33 95.7993C85.5603 95.9404 85.8017 96.0574 86.0543 96.1503C86.3068 96.2394 86.539 96.3118 86.7507 96.3675L87.9096 96.6795C88.2067 96.7575 88.5373 96.8653 88.9013 97.0027C89.269 97.1401 89.62 97.3277 89.9543 97.5654C90.2923 97.7994 90.5708 98.1003 90.79 98.468C91.0091 98.8357 91.1187 99.287 91.1187 99.8218C91.1187 100.438 90.9571 100.996 90.634 101.493C90.3146 101.991 89.8465 102.387 89.23 102.68C88.6171 102.973 87.8724 103.12 86.9958 103.12C86.1787 103.12 85.4711 102.988 84.8731 102.725C84.2788 102.461 83.8108 102.093 83.4691 101.621C83.1311 101.15 82.9398 100.602 82.8953 99.9778H84.3216C84.3587 100.409 84.5035 100.765 84.7561 101.048C85.0124 101.326 85.3355 101.534 85.7255 101.672C86.1193 101.805 86.5427 101.872 86.9958 101.872C87.5233 101.872 87.9968 101.787 88.4166 101.616C88.8363 101.441 89.1687 101.2 89.4138 100.892C89.659 100.58 89.7815 100.216 89.7815 99.7995C89.7815 99.4207 89.6757 99.1124 89.464 98.8747C89.2523 98.637 88.9737 98.4438 88.6283 98.2953C88.2828 98.1467 87.9096 98.0167 87.5084 97.9053L86.1044 97.5041C85.213 97.2478 84.5073 96.882 83.9873 96.4065C83.4673 95.9311 83.2073 95.309 83.2073 94.5401C83.2073 93.9013 83.38 93.3441 83.7254 92.8687C84.0746 92.3895 84.5425 92.0181 85.1294 91.7544C85.72 91.487 86.3793 91.3533 87.1073 91.3533C87.8427 91.3533 88.4964 91.4851 89.0684 91.7488C89.6404 92.0088 90.0935 92.3654 90.4278 92.8185C90.7658 93.2717 90.9441 93.7861 90.9627 94.3618H89.6256Z" fill="white"/>
<path d="M62.0831 106.129C61.8602 106.129 61.6615 106.11 61.4869 106.073C61.3123 106.04 61.1916 106.006 61.1248 105.973L61.4591 104.814C61.7785 104.896 62.0608 104.925 62.3059 104.903C62.5511 104.881 62.7683 104.771 62.9578 104.574C63.1509 104.381 63.3273 104.067 63.4871 103.633L63.7322 102.964L60.5676 94.3618H61.9939L64.3562 101.181H64.4453L66.8076 94.3618H68.2339L64.6013 104.168C64.4379 104.61 64.2355 104.975 63.9941 105.265C63.7526 105.559 63.4722 105.776 63.1528 105.917C62.8371 106.058 62.4805 106.129 62.0831 106.129Z" fill="white"/>
<path d="M57.5133 99.4207V94.3618H58.8281V102.92H57.5133V101.471H57.4241C57.2235 101.906 56.9115 102.275 56.4881 102.58C56.0647 102.881 55.5298 103.031 54.8835 103.031C54.3487 103.031 53.8733 102.914 53.4573 102.68C53.0413 102.442 52.7144 102.086 52.4767 101.61C52.239 101.131 52.1201 100.528 52.1201 99.7996V94.3618H53.435V99.7104C53.435 100.334 53.6095 100.832 53.9587 101.204C54.3115 101.575 54.761 101.761 55.307 101.761C55.6338 101.761 55.9663 101.677 56.3043 101.51C56.646 101.343 56.932 101.087 57.1623 100.741C57.3963 100.396 57.5133 99.9556 57.5133 99.4207Z" fill="white"/>
<path d="M42.0942 102.92V91.5093H46.0834C46.8782 91.5093 47.5338 91.6467 48.0501 91.9215C48.5664 92.1927 48.9508 92.5585 49.2034 93.0191C49.456 93.476 49.5822 93.983 49.5822 94.5401C49.5822 95.0304 49.495 95.4353 49.3204 95.7547C49.1495 96.0741 48.923 96.3267 48.6407 96.5124C48.3621 96.6981 48.0594 96.8355 47.7325 96.9247V97.0361C48.0817 97.0584 48.4327 97.181 48.7855 97.4038C49.1384 97.6267 49.4337 97.9461 49.6714 98.3621C49.9091 98.7781 50.028 99.287 50.028 99.8887C50.028 100.461 49.898 100.975 49.638 101.432C49.378 101.889 48.9675 102.251 48.4067 102.518C47.8458 102.786 47.116 102.92 46.2171 102.92H42.0942ZM43.476 101.694H46.2171C47.1197 101.694 47.7604 101.519 48.1392 101.17C48.5218 100.817 48.7131 100.39 48.7131 99.8887C48.7131 99.5024 48.6147 99.1458 48.4178 98.819C48.221 98.4884 47.9405 98.2247 47.5765 98.0278C47.2125 97.8273 46.7817 97.727 46.284 97.727H43.476V101.694ZM43.476 96.5235H46.0388C46.4548 96.5235 46.83 96.4418 47.1642 96.2784C47.5022 96.115 47.7697 95.8847 47.9665 95.5875C48.1671 95.2904 48.2674 94.9413 48.2674 94.5401C48.2674 94.0387 48.0928 93.6134 47.7437 93.2643C47.3945 92.9114 46.8411 92.735 46.0834 92.735H43.476V96.5235Z" fill="white"/>
<line x1="77.6007" y1="87.6469" x2="73.5215" y2="107.101" stroke="white"/>
<line x1="118.393" y1="87.6469" x2="114.313" y2="107.101" stroke="white"/>
<defs>
<filter id="filter0_d_894_3419" x="1.27866" y="27.3355" width="201.609" height="28.9345" filterUnits="userSpaceOnUse" color-interpolation-filters="sRGB">
<feFlood flood-opacity="0" result="BackgroundImageFix"/>
<feColorMatrix in="SourceAlpha" type="matrix" values="0 0 0 0 0 0 0 0 0 0 0 0 0 0 0 0 0 0 127 0" result="hardAlpha"/>
<feOffset/>
<feGaussianBlur stdDeviation="1.55"/>
<feComposite in2="hardAlpha" operator="out"/>
<feColorMatrix type="matrix" values="0 0 0 0 0.917647 0 0 0 0 0.886275 0 0 0 0 0.27451 0 0 0 0.74 0"/>
<feBlend mode="normal" in2="BackgroundImageFix" result="effect1_dropShadow_894_3419"/>
<feBlend mode="normal" in="SourceGraphic" in2="effect1_dropShadow_894_3419" result="shape"/>
</filter>
<filter id="filter1_d_894_3419" x="0.890967" y="51.3742" width="202.011" height="29.3006" filterUnits="userSpaceOnUse" color-interpolation-filters="sRGB">
<feFlood flood-opacity="0" result="BackgroundImageFix"/>
<feColorMatrix in="SourceAlpha" type="matrix" values="0 0 0 0 0 0 0 0 0 0 0 0 0 0 0 0 0 0 127 0" result="hardAlpha"/>
<feOffset/>
<feGaussianBlur stdDeviation="1.55"/>
<feComposite in2="hardAlpha" operator="out"/>
<feColorMatrix type="matrix" values="0 0 0 0 0.917647 0 0 0 0 0.886275 0 0 0 0 0.27451 0 0 0 0.74 0"/>
<feBlend mode="normal" in2="BackgroundImageFix" result="effect1_dropShadow_894_3419"/>
<feBlend mode="normal" in="SourceGraphic" in2="effect1_dropShadow_894_3419" result="shape"/>
</filter>
<linearGradient id="paint0_linear_894_3419" x1="62.8545" y1="-6.14127" x2="100.728" y2="15.2498" gradientUnits="userSpaceOnUse">
<stop stop-color="#CA912B"/>
<stop offset="1" stop-color="#644815"/>
</linearGradient>
<linearGradient id="paint1_linear_894_3419" x1="104.132" y1="-5.26986" x2="125.232" y2="18.7354" gradientUnits="userSpaceOnUse">
<stop stop-color="#CA912B"/>
<stop offset="1" stop-color="#644815"/>
</linearGradient>
<linearGradient id="paint2_linear_894_3419" x1="153.307" y1="2.35606" x2="177.563" y2="12.8762" gradientUnits="userSpaceOnUse">
<stop stop-color="#CA912B"/>
<stop offset="1" stop-color="#644815"/>
</linearGradient>
<linearGradient id="paint3_linear_894_3419" x1="31.0127" y1="-1.51213" x2="50.1098" y2="3.67036" gradientUnits="userSpaceOnUse">
<stop stop-color="#CA912B"/>
<stop offset="1" stop-color="#644815"/>
</linearGradient>
<linearGradient id="paint4_linear_894_3419" x1="82.559" y1="1.48094" x2="114.171" y2="22.5335" gradientUnits="userSpaceOnUse">
<stop stop-color="#CA912B"/>
<stop offset="1" stop-color="#644815"/>
</linearGradient>
<linearGradient id="paint5_linear_894_3419" x1="53.5309" y1="31.4442" x2="53.5309" y2="52.1178" gradientUnits="userSpaceOnUse">
<stop stop-color="#CA912B"/>
<stop offset="0.307692" stop-color="#ECE747"/>
<stop offset="0.548077" stop-color="#FFA70A"/>
<stop offset="1" stop-color="#644815"/>
</linearGradient>
<linearGradient id="paint6_linear_894_3419" x1="151.293" y1="31.456" x2="151.293" y2="52.1697" gradientUnits="userSpaceOnUse">
<stop stop-color="#CA912B"/>
<stop offset="0.307692" stop-color="#ECE747"/>
<stop offset="0.548077" stop-color="#FFA70A"/>
<stop offset="1" stop-color="#644815"/>
</linearGradient>
<linearGradient id="paint7_linear_894_3419" x1="20.633" y1="31.4357" x2="20.633" y2="52.124" gradientUnits="userSpaceOnUse">
<stop stop-color="#CA912B"/>
<stop offset="0.307692" stop-color="#ECE747"/>
<stop offset="0.548077" stop-color="#FFA70A"/>
<stop offset="1" stop-color="#644815"/>
</linearGradient>
<linearGradient id="paint8_linear_894_3419" x1="183.869" y1="31.4974" x2="183.869" y2="52.1554" gradientUnits="userSpaceOnUse">
<stop stop-color="#CA912B"/>
<stop offset="0.307692" stop-color="#ECE747"/>
<stop offset="0.548077" stop-color="#FFA70A"/>
<stop offset="1" stop-color="#644815"/>
</linearGradient>
<linearGradient id="paint9_linear_894_3419" x1="86.1224" y1="31.5064" x2="86.1224" y2="52.1019" gradientUnits="userSpaceOnUse">
<stop stop-color="#CA912B"/>
<stop offset="0.307692" stop-color="#ECE747"/>
<stop offset="0.548077" stop-color="#FFA70A"/>
<stop offset="1" stop-color="#644815"/>
</linearGradient>
<linearGradient id="paint10_linear_894_3419" x1="118.684" y1="31.4985" x2="118.684" y2="52.1116" gradientUnits="userSpaceOnUse">
<stop stop-color="#CA912B"/>
<stop offset="0.307692" stop-color="#ECE747"/>
<stop offset="0.548077" stop-color="#FFA70A"/>
<stop offset="1" stop-color="#644815"/>
</linearGradient>
<linearGradient id="paint11_linear_894_3419" x1="183.812" y1="55.5015" x2="183.812" y2="76.214" gradientUnits="userSpaceOnUse">
<stop stop-color="#CA912B"/>
<stop offset="0.221154" stop-color="#FFEB0F"/>
<stop offset="0.495192" stop-color="#FFBE4F"/>
<stop offset="1" stop-color="#644815"/>
</linearGradient>
<linearGradient id="paint12_linear_894_3419" x1="150.836" y1="55.4742" x2="150.836" y2="76.2136" gradientUnits="userSpaceOnUse">
<stop stop-color="#CA912B"/>
<stop offset="0.221154" stop-color="#FFEB0F"/>
<stop offset="0.495192" stop-color="#FFBE4F"/>
<stop offset="1" stop-color="#644815"/>
</linearGradient>
<linearGradient id="paint13_linear_894_3419" x1="52.759" y1="55.4916" x2="52.759" y2="76.2029" gradientUnits="userSpaceOnUse">
<stop stop-color="#CA912B"/>
<stop offset="0.221154" stop-color="#FFEB0F"/>
<stop offset="0.495192" stop-color="#FFBE4F"/>
<stop offset="1" stop-color="#644815"/>
</linearGradient>
<linearGradient id="paint14_linear_894_3419" x1="117.899" y1="55.4792" x2="117.899" y2="76.2012" gradientUnits="userSpaceOnUse">
<stop stop-color="#CA912B"/>
<stop offset="0.221154" stop-color="#FFEB0F"/>
<stop offset="0.495192" stop-color="#FFBE4F"/>
<stop offset="1" stop-color="#644815"/>
</linearGradient>
<linearGradient id="paint15_linear_894_3419" x1="85.3346" y1="55.5308" x2="85.3346" y2="76.1568" gradientUnits="userSpaceOnUse">
<stop stop-color="#CA912B"/>
<stop offset="0.221154" stop-color="#FFEB0F"/>
<stop offset="0.495192" stop-color="#FFBE4F"/>
<stop offset="1" stop-color="#644815"/>
</linearGradient>
<linearGradient id="paint16_linear_894_3419" x1="20.2418" y1="55.7667" x2="20.2418" y2="76.2264" gradientUnits="userSpaceOnUse">
<stop stop-color="#CA912B"/>
<stop offset="0.221154" stop-color="#FFEB0F"/>
<stop offset="0.495192" stop-color="#FFBE4F"/>
<stop offset="1" stop-color="#644815"/>
</linearGradient>
</defs>
</svg>
